<?xml version="1.0" ?><svg version="1.1" xmlns="http://www.w3.org/2000/svg" width="250" height="250" viewBox="0 0 37 32">
<style>svg { --primary-color: #4c77c5; --secondary-color: #335ca7; --tertiary-color: #20262e; }</style>
<path style="fill:#4c77c5" d="M8.576 19.424q0-1.184-0.832-2.016t-2.016-0.832-2.016 0.832-0.864 2.016 0.864 2.016 2.016 0.832 2.016-0.832 0.832-2.016zM9.216 13.728h18.144l-1.6-6.4q-0.032-0.128-0.256-0.288t-0.352-0.192h-13.728q-0.16 0-0.384 0.192t-0.224 0.288zM33.728 19.424q0-1.184-0.864-2.016t-2.016-0.832-2.016 0.832-0.832 2.016 0.832 2.016 2.016 0.832 2.016-0.832 0.864-2.016zM36.576 17.728v6.848q0 0.256-0.16 0.416t-0.416 0.16h-1.728v2.272q0 1.44-0.992 2.432t-2.432 0.992-2.432-0.992-0.992-2.432v-2.272h-18.272v2.272q0 1.44-0.992 2.432t-2.432 0.992-2.432-0.992-1.024-2.432v-2.272h-1.696q-0.256 0-0.416-0.16t-0.16-0.416v-6.848q0-1.664 1.184-2.848t2.816-1.152h0.512l1.856-7.488q0.416-1.696 1.856-2.816t3.2-1.152h13.728q1.728 0 3.2 1.152t1.856 2.816l1.856 7.488h0.512q1.664 0 2.816 1.152t1.184 2.848z"></path>
</svg>
