<?xml version="1.0" ?><svg version="1.1" xmlns="http://www.w3.org/2000/svg" width="250" height="250" viewBox="0 0 21 32">
<style>svg { --primary-color: #4c77c5; --secondary-color: #335ca7; --tertiary-color: #20262e; }</style>
<path style="fill:#4c77c5" d="M4.8 2.4v1.6h-3.2c-0.8 0-1.6 0.8-1.6 1.6v20.8h1.6v3.2h3.2v-3.2h11.2v3.2h3.2v-3.2h1.6v-20.8c0-0.8-0.8-1.6-1.6-1.6h-3.2v-1.6zM3.2 7.2h14.4v8h-14.4v-3.2zM4.8 20c0.896 0 1.6 0.704 1.6 1.6s-0.704 1.6-1.6 1.6c-0.896 0-1.6-0.704-1.6-1.6s0.704-1.6 1.6-1.6zM16 20c0.896 0 1.6 0.704 1.6 1.6s-0.704 1.6-1.6 1.6c-0.896 0-1.6-0.704-1.6-1.6s0.704-1.6 1.6-1.6z"></path>
</svg>
